<svg width="17" height="21" viewBox="0 0 17 21" fill="none" xmlns="http://www.w3.org/2000/svg">
<path d="M2.10018 5.78348C0.371669 6.78116 -0.220128 8.99075 0.777919 10.7188C1.45886 11.8988 2.70519 12.5491 3.97762 12.5252C4.07964 12.5232 4.13318 12.6611 4.05197 12.7229L2.57772 13.8443C0.849208 14.8419 0.257411 17.0515 1.25546 18.7796C2.25253 20.5076 4.46249 21.0996 6.191 20.102L14.3961 15.3647C16.1236 14.367 16.7154 12.1574 15.7183 10.4294C15.007 9.19789 13.681 8.54331 12.3521 8.62986C12.2424 8.637 12.1783 8.47387 12.2696 8.41253L13.9185 7.30386C15.6461 6.30618 16.2379 4.09659 15.2408 2.36856C14.2428 0.640534 12.0338 0.0484928 10.3053 1.04617L2.10018 5.78348Z" fill="#FF0000"/>
<path d="M10.9039 10.5504C11.0372 10.6274 11.0372 10.8198 10.9039 10.8968L6.53387 13.4198C6.40054 13.4968 6.23387 13.4006 6.23387 13.2466L6.23387 8.20054C6.23387 8.04658 6.40054 7.95036 6.53387 8.02734L10.9039 10.5504Z" fill="white"/>
</svg>
