<svg width="21" height="21" viewBox="0 0 21 21" fill="none" xmlns="http://www.w3.org/2000/svg">
<path fill-rule="evenodd" clip-rule="evenodd" d="M9.2168 5.95422H10.2168V11.0713L13.8754 14.73L13.1683 15.4371L9.2168 11.4855V5.95422Z" fill="#161722"/>
<path fill-rule="evenodd" clip-rule="evenodd" d="M10.3379 1.82703C6.54833 1.82703 3.30795 4.1833 2.00397 7.51165H6.51659V8.51165H0.800969V2.06229H1.80097V5.66583C3.53909 2.76734 6.71147 0.827026 10.3379 0.827026C15.8316 0.827026 20.2852 5.28057 20.2852 10.7743C20.2852 16.268 15.8316 20.7216 10.3379 20.7216C4.84417 20.7216 0.390625 16.268 0.390625 10.7743H1.39062C1.39062 15.7157 5.39645 19.7216 10.3379 19.7216C15.2793 19.7216 19.2852 15.7157 19.2852 10.7743C19.2852 5.83285 15.2793 1.82703 10.3379 1.82703Z" fill="#161722"/>
</svg>
