<svg width="17" height="19" viewBox="0 0 17 19" fill="none" xmlns="http://www.w3.org/2000/svg">
<path d="M15.7786 6.92684L15.7795 6.92753C15.7888 6.9347 15.7963 6.94391 15.8015 6.95444C15.8067 6.96498 15.8094 6.97656 15.8093 6.9883V6.9886V17.4921C15.8093 17.5129 15.8011 17.5328 15.7864 17.5476C15.7716 17.5623 15.7517 17.5705 15.7309 17.5706H11.4142C11.3934 17.5706 11.3735 17.5623 11.3588 17.5476C11.3441 17.5329 11.3359 17.513 11.3359 17.4923V11.061V10.561H10.8359H5.86339H5.36339V11.061V17.4921C5.36338 17.5129 5.35511 17.5328 5.34039 17.5476C5.32568 17.5623 5.30572 17.5705 5.28491 17.5706H0.968904H0.968703C0.958447 17.5706 0.948294 17.5685 0.938822 17.5646C0.929353 17.5607 0.92074 17.555 0.913482 17.5477C0.906233 17.5404 0.900482 17.5318 0.89656 17.5224C0.892638 17.5129 0.890621 17.5027 0.890625 17.4925V17.4923L0.890625 6.98882C0.890625 6.9888 0.890625 6.98877 0.890625 6.98875C0.89064 6.97692 0.893306 6.96524 0.898426 6.95458C0.903526 6.94395 0.910932 6.9346 0.920102 6.92721C0.920157 6.92716 0.920212 6.92712 0.920267 6.92707L8.1805 1.11921C8.18054 1.11918 8.18061 1.11912 8.18065 1.11909C8.19446 1.1081 8.21152 1.10207 8.22917 1.10193C8.24682 1.10179 8.26401 1.10757 8.278 1.11834C8.27803 1.11837 8.27807 1.1184 8.27811 1.11843L15.7786 6.92684Z" stroke="#161722"/>
</svg>
