<svg width="19" height="18" viewBox="0 0 19 18" fill="none" xmlns="http://www.w3.org/2000/svg">
<path d="M16.9181 7.2054H11.3887L13.2951 2.48796C13.4581 1.99725 13.3758 1.45328 13.0731 1.0336C12.7705 0.613917 12.2798 0.362915 11.7624 0.362915H10.4614C10.2217 0.362915 9.99493 0.469449 9.84078 0.653464L4.0475 7.2054H2.00479C1.11458 7.2054 0.390625 7.92935 0.390625 8.81956V16.0833C0.390625 16.9735 1.11458 17.6974 2.00479 17.6974H14.7446C15.073 17.6963 15.3933 17.5956 15.6632 17.4086C15.9331 17.2215 16.1399 16.9569 16.2563 16.6498L18.4814 10.717C18.5152 10.6264 18.5324 10.5304 18.5322 10.4337V8.81956C18.5322 7.92935 17.8083 7.2054 16.9181 7.2054ZM1.57593 9.41921C1.57593 8.86693 2.02365 8.41921 2.57593 8.41921H3.54751C3.82365 8.41921 4.0475 8.64307 4.0475 8.91921V16.1498C4.0475 16.426 3.82365 16.6498 3.5475 16.6498H2.57593C2.02365 16.6498 1.57593 16.2021 1.57593 15.6498V9.41921ZM17.54 10.2588L15.3996 15.9992C15.2537 16.3904 14.8801 16.6498 14.4626 16.6498H5.9184C5.36611 16.6498 4.9184 16.2021 4.9184 15.6498V8.52446C4.9184 8.28582 5.00374 8.05505 5.159 7.87383L10.3871 1.77179C10.4955 1.64522 10.6599 1.58101 10.8254 1.60056L11.729 1.70729C12.0602 1.74642 12.261 2.09272 12.1304 2.39962L10.0211 7.35629C9.98022 7.4776 9.96881 7.60693 9.98785 7.73354C10.0069 7.86015 10.0558 7.9804 10.1306 8.08431C10.2054 8.18822 10.3039 8.27281 10.4179 8.33105C10.532 8.38929 10.6582 8.41951 10.7863 8.41921H17.04C17.3161 8.41921 17.54 8.64307 17.54 8.91921V10.2588Z" fill="#161722"/>
</svg>
