<svg width="14" height="19" viewBox="0 0 14 19" fill="none" xmlns="http://www.w3.org/2000/svg">
<path fill-rule="evenodd" clip-rule="evenodd" d="M6.63867 0.140381C8.29553 0.140381 9.63867 1.48353 9.63867 3.14038L9.63867 8.99329C9.63867 10.6501 8.29553 11.9933 6.63867 11.9933C4.98182 11.9933 3.63867 10.6501 3.63867 8.99329L3.63867 3.14038C3.63867 1.48353 4.98182 0.140381 6.63867 0.140381Z" fill="#161722"/>
<path fill-rule="evenodd" clip-rule="evenodd" d="M12.767 8.60667C13.0415 8.63679 13.2396 8.88374 13.2094 9.15823C13.0913 10.2343 12.6299 11.8342 11.6151 13.1781C10.6615 14.4409 9.2145 15.4792 7.1387 15.6235V18.0119C7.1387 18.2881 6.91485 18.5119 6.6387 18.5119C6.36256 18.5119 6.1387 18.2881 6.1387 18.0119V15.6235C4.06435 15.479 2.63306 14.4396 1.70002 13.1734C0.707953 11.8272 0.275462 10.2255 0.17692 9.14927C0.151741 8.87428 0.354255 8.63094 0.629248 8.60576C0.90424 8.58059 1.14758 8.7831 1.17275 9.05809C1.25846 9.99417 1.64346 11.411 2.50504 12.5802C3.35247 13.7301 4.65659 14.6407 6.6387 14.6407C8.62178 14.6407 9.94598 13.7291 10.8171 12.5755C11.7016 11.404 12.1126 9.98542 12.2154 9.04913C12.2455 8.77464 12.4925 8.57654 12.767 8.60667Z" fill="#161722"/>
</svg>
