<svg width="15" height="17" viewBox="0 0 15 17" fill="none" xmlns="http://www.w3.org/2000/svg">
<path fill-rule="evenodd" clip-rule="evenodd" d="M6.93475 2.60409C6.86494 2.66642 6.74668 2.753 6.58275 2.78147C4.48428 3.14589 2.88857 4.97676 2.88857 7.17931V13.1032L1.0918 14.8999V15.0661H13.5281V14.8929L11.8163 13.0961V7.17931C11.8163 4.97676 10.2206 3.14589 8.12211 2.78147C7.95819 2.753 7.83993 2.66642 7.77011 2.60409C7.69678 2.53862 7.63736 2.46412 7.59178 2.40067C7.51054 2.28761 7.43203 2.15 7.36933 2.04011C7.36356 2.03 7.35792 2.02012 7.35243 2.01052C7.34694 2.02012 7.3413 2.03 7.33553 2.04011C7.27284 2.15 7.19432 2.28761 7.11309 2.40067C7.0675 2.46412 7.00809 2.53862 6.93475 2.60409ZM6.94691 0.906834C7.0342 0.842568 7.17291 0.767578 7.35243 0.767578C7.53196 0.767578 7.67066 0.842568 7.75795 0.906834C7.84522 0.971081 7.9134 1.04798 7.96344 1.11178C8.06204 1.23748 8.1515 1.39346 8.21921 1.51182L8.22985 1.53041C8.30147 1.65564 8.35438 1.74814 8.40343 1.81653C10.9182 2.30679 12.8163 4.5209 12.8163 7.17931V12.696L14.5281 14.4928V16.0661H0.0917969V14.4857L1.88857 12.689V7.17931C1.88857 4.5209 3.78662 2.30679 6.30144 1.81653C6.35049 1.74814 6.40339 1.65564 6.47502 1.53041L6.48565 1.51182C6.55337 1.39346 6.64283 1.23748 6.74143 1.11178C6.79147 1.04798 6.85965 0.971081 6.94691 0.906834Z" fill="#161722"/>
</svg>
