<svg width="18" height="19" viewBox="0 0 18 19" fill="none" xmlns="http://www.w3.org/2000/svg">
<path fill-rule="evenodd" clip-rule="evenodd" d="M6.90625 1.42236C3.6907 1.42236 1.08398 4.02908 1.08398 7.24463C1.08398 10.4602 3.6907 13.0669 6.90625 13.0669C8.52028 13.0669 9.98013 12.4108 11.0352 11.3495C12.0823 10.2963 12.7285 8.84643 12.7285 7.24463C12.7285 4.02908 10.1218 1.42236 6.90625 1.42236ZM0.0839844 7.24463C0.0839844 3.4768 3.13842 0.422363 6.90625 0.422363C10.6741 0.422363 13.7285 3.4768 13.7285 7.24463C13.7285 8.94172 13.1083 10.4947 12.0831 11.6882L17.918 17.5231L17.2109 18.2302L11.3779 12.3972C10.1807 13.4369 8.61669 14.0669 6.90625 14.0669C3.13842 14.0669 0.0839844 11.0125 0.0839844 7.24463Z" fill="#161722"/>
</svg>
