<svg width="18" height="22" viewBox="0 0 18 22" fill="none" xmlns="http://www.w3.org/2000/svg">
<path d="M3.19784 6.29251C1.46933 7.29019 0.877528 9.49979 1.87558 11.2278C2.62217 12.5216 4.04845 13.1786 5.44359 13.0083L3.67538 14.3533C1.94686 15.351 1.35507 17.5606 2.35311 19.2886C3.35018 21.0166 5.56015 21.6087 7.28866 20.611L15.4937 15.8737C17.2213 14.876 17.8131 12.6664 16.816 10.9384C16.0134 9.54897 14.4284 8.89392 12.9395 9.20912L15.0162 7.8129C16.7437 6.81522 17.3355 4.60562 16.3385 2.87759C15.3404 1.14957 13.1314 0.557526 11.4029 1.55521L3.19784 6.29251Z" stroke="#161722" stroke-linejoin="round"/>
<path d="M12.0016 11.0594C12.1349 11.1364 12.1349 11.3288 12.0016 11.4058L7.63153 13.9289C7.4982 14.0058 7.33153 13.9096 7.33153 13.7557L7.33153 8.70958C7.33153 8.55562 7.4982 8.45939 7.63153 8.53637L12.0016 11.0594Z" fill="#161722"/>
</svg>
