<svg width="20" height="14" viewBox="0 0 20 14" fill="none" xmlns="http://www.w3.org/2000/svg">
<path fill-rule="evenodd" clip-rule="evenodd" d="M0.835938 0.444733H15.3691V3.60136C15.3691 3.75747 15.54 3.8534 15.6733 3.77209L18.7879 1.87209C18.9212 1.79078 19.092 1.88671 19.092 2.04282V10.2971C19.092 10.449 18.9293 10.5455 18.796 10.4725L15.6652 8.75797C15.5319 8.68498 15.3691 8.78143 15.3691 8.93339V13.0592H0.835938V0.444733ZM1.83594 1.44473V12.0592H14.3691V7.24564C14.3691 7.09368 14.5319 6.99723 14.6652 7.07022L17.796 8.78471C17.9293 8.8577 18.092 8.76125 18.092 8.60929V3.82424C18.092 3.66813 17.9212 3.5722 17.7879 3.6535L14.6733 5.55351C14.54 5.63481 14.3691 5.53889 14.3691 5.38277V1.44473H1.83594Z" fill="#161722"/>
<path d="M9.03906 3.21671H7.21094V5.89639H4.53125V7.72452H7.21094V10.4037H9.03906V7.72452H11.7188V5.89639H9.03906V3.21671Z" fill="#161722"/>
</svg>
