<svg width="21" height="21" viewBox="0 0 21 21" fill="none" xmlns="http://www.w3.org/2000/svg">
<path fill-rule="evenodd" clip-rule="evenodd" d="M9.03711 5.54321H10.0371V10.8028L13.4482 14.2139L12.7411 14.921L9.03711 11.217V5.54321Z" fill="#161722"/>
<path fill-rule="evenodd" clip-rule="evenodd" d="M10.3162 1.51184C5.38672 1.51184 1.39062 5.50794 1.39062 10.4374C1.39062 15.3668 5.38672 19.3629 10.3162 19.3629C15.2456 19.3629 19.2417 15.3668 19.2417 10.4374C19.2417 5.50794 15.2456 1.51184 10.3162 1.51184ZM0.390625 10.4374C0.390625 4.95566 4.83444 0.511841 10.3162 0.511841C15.7979 0.511841 20.2417 4.95566 20.2417 10.4374C20.2417 15.9191 15.7979 20.3629 10.3162 20.3629C4.83444 20.3629 0.390625 15.9191 0.390625 10.4374Z" fill="#161722"/>
</svg>
