<svg width="91" height="21" viewBox="0 0 91 21" fill="none" xmlns="http://www.w3.org/2000/svg">
<g clip-path="url(#clip0_16_749)">
<path d="M28.3633 3.87519C28.0341 2.64518 27.0674 1.67858 25.8374 1.34932C23.6103 0.751953 14.6756 0.751953 14.6756 0.751953C14.6756 0.751953 5.74104 0.751953 3.51385 1.34932C2.28385 1.67858 1.31725 2.64518 0.987991 3.87519C0.390625 6.10237 0.390625 10.752 0.390625 10.752C0.390625 10.752 0.390625 15.4016 0.987991 17.6288C1.31725 18.8588 2.28385 19.8254 3.51385 20.1546C5.74104 20.752 14.6756 20.752 14.6756 20.752C14.6756 20.752 23.6103 20.752 25.8374 20.1546C27.0674 19.8254 28.0341 18.8588 28.3633 17.6288C28.9607 15.4016 28.9607 10.752 28.9607 10.752C28.9607 10.752 28.9583 6.10237 28.3633 3.87519Z" fill="#FF0000"/>
<path d="M11.8159 15.0374L19.2383 10.7524L11.8159 6.46729V15.0374Z" fill="#EDEDED"/>
<path d="M34.9931 13.7556L31.7852 2.17041H34.5839L35.7081 7.42205C35.995 8.71556 36.2043 9.81857 36.3407 10.7311H36.423C36.5171 10.0773 36.7288 8.98132 37.0557 7.44087L38.2198 2.17041H41.0185L37.7706 13.7556V19.313H34.9908V13.7556H34.9931Z" fill="#161722"/>
<path d="M41.8603 18.9457C41.2959 18.5647 40.8937 17.972 40.6538 17.1677C40.4163 16.3634 40.2964 15.2957 40.2964 13.9598V12.1418C40.2964 10.7942 40.4328 9.71 40.7056 8.89391C40.9784 8.07783 41.4041 7.48046 41.9826 7.10652C42.5612 6.73258 43.3208 6.54443 44.2616 6.54443C45.1882 6.54443 45.929 6.73493 46.4887 7.11593C47.0461 7.49692 47.4553 8.09429 47.714 8.90332C47.9727 9.7147 48.1021 10.7942 48.1021 12.1418V13.9598C48.1021 15.2957 47.9751 16.3681 47.7235 17.1771C47.4718 17.9885 47.0626 18.5812 46.4981 18.9551C45.9337 19.3291 45.167 19.5172 44.2004 19.5172C43.2032 19.5195 42.4248 19.3267 41.8603 18.9457ZM45.0259 16.9843C45.1811 16.5751 45.2611 15.9095 45.2611 14.9829V11.0812C45.2611 10.1827 45.1835 9.5242 45.0259 9.11028C44.8683 8.69401 44.5932 8.48705 44.198 8.48705C43.8171 8.48705 43.5466 8.69401 43.3914 9.11028C43.2338 9.52656 43.1562 10.1827 43.1562 11.0812V14.9829C43.1562 15.9095 43.2314 16.5774 43.382 16.9843C43.5325 17.3935 43.8029 17.5981 44.198 17.5981C44.5932 17.5981 44.8683 17.3935 45.0259 16.9843Z" fill="#161722"/>
<path d="M57.206 19.3153H55L54.7554 17.7819H54.6943C54.0945 18.939 53.1961 19.5175 51.9967 19.5175C51.1665 19.5175 50.5527 19.2447 50.1576 18.7015C49.7625 18.1558 49.5649 17.3045 49.5649 16.1474V6.78946H52.3848V15.9827C52.3848 16.5425 52.4459 16.9399 52.5682 17.1775C52.6905 17.415 52.8951 17.535 53.182 17.535C53.4266 17.535 53.6618 17.4598 53.8876 17.3092C54.1134 17.1586 54.278 16.9681 54.3885 16.7377V6.78711H57.206V19.3153Z" fill="#161722"/>
<path d="M64.8664 4.43953H62.0677V19.3149H59.309V4.43953H56.5103V2.17236H64.8664V4.43953Z" fill="#161722"/>
<path d="M71.6675 19.3153H69.4615L69.2169 17.7819H69.1558C68.5561 18.939 67.6577 19.5175 66.4582 19.5175C65.628 19.5175 65.0142 19.2447 64.6191 18.7015C64.224 18.1558 64.0264 17.3045 64.0264 16.1474V6.78946H66.8463V15.9827C66.8463 16.5425 66.9074 16.9399 67.0297 17.1775C67.152 17.415 67.3566 17.535 67.6436 17.535C67.8881 17.535 68.1233 17.4598 68.3491 17.3092C68.5749 17.1586 68.7395 16.9681 68.85 16.7377V6.78711H71.6675V19.3153Z" fill="#161722"/>
<path d="M80.9999 8.79065C80.8282 8.00044 80.553 7.42894 80.1721 7.07381C79.7911 6.71869 79.2666 6.5423 78.5987 6.5423C78.0813 6.5423 77.5968 6.68811 77.1476 6.98209C76.6984 7.27607 76.3503 7.65942 76.1057 8.13684H76.0846V1.5376H73.3682V19.3128H75.6965L75.9834 18.1275H76.0446C76.2633 18.5508 76.5902 18.8824 77.0253 19.1294C77.4604 19.374 77.9449 19.4963 78.4764 19.4963C79.4289 19.4963 80.1321 19.0565 80.5813 18.1792C81.0305 17.2996 81.2562 15.9285 81.2562 14.0612V12.0786C81.2562 10.6792 81.1692 9.58087 80.9999 8.79065ZM78.4152 13.9012C78.4152 14.8137 78.3776 15.5287 78.3023 16.0461C78.2271 16.5635 78.1024 16.9328 77.9237 17.1491C77.7473 17.3678 77.5074 17.476 77.2087 17.476C76.9759 17.476 76.7619 17.4219 76.5643 17.3114C76.3668 17.2032 76.2069 17.0386 76.0846 16.8222V9.71257C76.1786 9.37155 76.3433 9.09404 76.5761 8.87532C76.8066 8.6566 77.0606 8.54841 77.331 8.54841C77.618 8.54841 77.839 8.6613 77.9943 8.88473C78.1518 9.1105 78.26 9.4868 78.3212 10.0183C78.3823 10.5498 78.4129 11.3048 78.4129 12.2855V13.9012H78.4152Z" fill="#161722"/>
<path d="M85.2563 14.6232C85.2563 15.4275 85.2798 16.0296 85.3269 16.4318C85.3739 16.8339 85.4727 17.1256 85.6232 17.3114C85.7737 17.4948 86.0042 17.5865 86.317 17.5865C86.738 17.5865 87.0296 17.4219 87.1848 17.095C87.3424 16.7681 87.4271 16.2225 87.4412 15.4605L89.873 15.6039C89.8871 15.7121 89.8941 15.8626 89.8941 16.0531C89.8941 17.2102 89.5766 18.0757 88.944 18.6472C88.3114 19.2187 87.4153 19.5056 86.2582 19.5056C84.8683 19.5056 83.8946 19.0705 83.3372 18.198C82.7775 17.3255 82.5 15.9779 82.5 14.1528V11.9656C82.5 10.0865 82.7893 8.71301 83.3678 7.84754C83.9464 6.98206 84.9365 6.54932 86.3405 6.54932C87.3071 6.54932 88.0503 6.72571 88.5677 7.08084C89.0851 7.43596 89.4496 7.98629 89.6613 8.73653C89.873 9.48676 89.9788 10.5216 89.9788 11.8433V13.9882H85.2563V14.6232ZM85.6138 8.72007C85.4703 8.89645 85.3763 9.18573 85.3269 9.58789C85.2798 9.99006 85.2563 10.5992 85.2563 11.4177V12.3161H87.3189V11.4177C87.3189 10.6133 87.2907 10.0042 87.2366 9.58789C87.1825 9.17162 87.0837 8.87999 86.9402 8.70831C86.7968 8.53898 86.5757 8.45196 86.277 8.45196C85.976 8.45431 85.7549 8.54368 85.6138 8.72007Z" fill="#161722"/>
</g>
<defs>
<clipPath id="clip0_16_749">
<rect width="90" height="20" fill="white" transform="translate(0.390625 0.751953)"/>
</clipPath>
</defs>
</svg>
