<svg width="17" height="19" viewBox="0 0 17 19" fill="none" xmlns="http://www.w3.org/2000/svg">
<path d="M15.7786 7.17489L15.7795 7.17558C15.7888 7.18275 15.7963 7.19195 15.8015 7.20249C15.8067 7.21302 15.8094 7.22461 15.8093 7.23635V7.23665V17.7401C15.8093 17.7609 15.8011 17.7809 15.7864 17.7956C15.7716 17.8103 15.7517 17.8186 15.7309 17.8186H11.4142C11.3934 17.8186 11.3735 17.8104 11.3588 17.7957C11.3441 17.781 11.3359 17.7611 11.3359 17.7403V11.3091V10.8091H10.8359H5.86339H5.36339V11.3091V17.7401C5.36338 17.7609 5.35511 17.7809 5.34039 17.7956C5.32568 17.8103 5.30572 17.8186 5.28491 17.8186H0.968904H0.968703C0.958447 17.8186 0.948294 17.8166 0.938822 17.8127C0.929353 17.8088 0.92074 17.803 0.913482 17.7957C0.906233 17.7885 0.900482 17.7799 0.89656 17.7704C0.892638 17.7609 0.890621 17.7508 0.890625 17.7405V17.7403L0.890625 7.23687C0.890625 7.23684 0.890625 7.23682 0.890625 7.2368C0.89064 7.22497 0.893306 7.21329 0.898426 7.20262C0.903526 7.192 0.910932 7.18265 0.920102 7.17525C0.920157 7.17521 0.920212 7.17517 0.920267 7.17512L8.1805 1.36726C8.18054 1.36723 8.18061 1.36717 8.18065 1.36714C8.19446 1.35614 8.21152 1.35012 8.22917 1.34998C8.24682 1.34984 8.26401 1.35561 8.278 1.36638C8.27803 1.36641 8.27807 1.36644 8.27811 1.36647L15.7786 7.17489Z" stroke="white"/>
</svg>
