<svg width="19" height="18" viewBox="0 0 19 18" fill="none" xmlns="http://www.w3.org/2000/svg">
<path d="M16.9181 7.45344H11.3887L13.2951 2.736C13.4581 2.2453 13.3758 1.70133 13.0731 1.28165C12.7705 0.861964 12.2798 0.610962 11.7624 0.610962H10.4614C10.2217 0.610962 9.99493 0.717496 9.84078 0.901511L4.0475 7.45344H2.00479C1.11458 7.45344 0.390625 8.17739 0.390625 9.0676V16.3313C0.390625 17.2215 1.11458 17.9455 2.00479 17.9455H14.7446C15.073 17.9444 15.3933 17.8437 15.6632 17.6566C15.9331 17.4696 16.1399 17.205 16.2563 16.8979L18.4814 10.965C18.5152 10.8744 18.5324 10.7785 18.5322 10.6818V9.0676C18.5322 8.17739 17.8083 7.45344 16.9181 7.45344ZM1.57593 9.66726C1.57593 9.11497 2.02365 8.66726 2.57593 8.66726H3.54751C3.82365 8.66726 4.0475 8.89112 4.0475 9.16726V16.3979C4.0475 16.674 3.82365 16.8979 3.5475 16.8979H2.57593C2.02365 16.8979 1.57593 16.4502 1.57593 15.8979V9.66726ZM17.54 10.5069L15.3996 16.2473C15.2537 16.6385 14.8801 16.8979 14.4626 16.8979H5.9184C5.36611 16.8979 4.9184 16.4502 4.9184 15.8979V8.77251C4.9184 8.53387 5.00374 8.3031 5.159 8.12188L10.3871 2.01984C10.4955 1.89327 10.6599 1.82905 10.8254 1.84861L11.729 1.95534C12.0602 1.99447 12.261 2.34077 12.1304 2.64767L10.0211 7.60433C9.98022 7.72565 9.96881 7.85498 9.98785 7.98159C10.0069 8.1082 10.0558 8.22844 10.1306 8.33236C10.2054 8.43627 10.3039 8.52085 10.4179 8.5791C10.532 8.63734 10.6582 8.66756 10.7863 8.66726H17.04C17.3161 8.66726 17.54 8.89112 17.54 9.16726V10.5069Z" fill="white"/>
</svg>
