<svg width="14" height="19" viewBox="0 0 14 19" fill="none" xmlns="http://www.w3.org/2000/svg">
<path fill-rule="evenodd" clip-rule="evenodd" d="M6.63867 0.388428C8.29553 0.388428 9.63867 1.73157 9.63867 3.38843L9.63867 9.24133C9.63867 10.8982 8.29553 12.2413 6.63867 12.2413C4.98182 12.2413 3.63867 10.8982 3.63867 9.24133L3.63867 3.38843C3.63867 1.73157 4.98182 0.388428 6.63867 0.388428Z" fill="white"/>
<path fill-rule="evenodd" clip-rule="evenodd" d="M12.767 8.85471C13.0415 8.88484 13.2396 9.13178 13.2094 9.40628C13.0913 10.4823 12.6299 12.0822 11.6151 13.4261C10.6615 14.689 9.2145 15.7273 7.1387 15.8716V18.26C7.1387 18.5361 6.91485 18.76 6.6387 18.76C6.36256 18.76 6.1387 18.5361 6.1387 18.26V15.8716C4.06435 15.7271 2.63306 14.6876 1.70002 13.4215C0.707953 12.0752 0.275462 10.4736 0.17692 9.39732C0.151741 9.12233 0.354255 8.87899 0.629248 8.85381C0.90424 8.82863 1.14758 9.03115 1.17275 9.30614C1.25846 10.2422 1.64346 11.659 2.50504 12.8282C3.35247 13.9782 4.65659 14.8887 6.6387 14.8887C8.62178 14.8887 9.94598 13.9771 10.8171 12.8235C11.7016 11.6521 12.1126 10.2335 12.2154 9.29718C12.2455 9.02268 12.4925 8.82459 12.767 8.85471Z" fill="white"/>
</svg>
