<svg width="15" height="16" viewBox="0 0 15 16" fill="none" xmlns="http://www.w3.org/2000/svg">
<path fill-rule="evenodd" clip-rule="evenodd" d="M6.93475 1.85214C6.86494 1.91447 6.74668 2.00105 6.58275 2.02952C4.48428 2.39394 2.88857 4.2248 2.88857 6.42736V12.3512L1.0918 14.148V14.3142H13.5281V14.1409L11.8163 12.3442V6.42736C11.8163 4.2248 10.2206 2.39394 8.12211 2.02952C7.95819 2.00105 7.83993 1.91447 7.77011 1.85214C7.69678 1.78666 7.63736 1.71217 7.59178 1.64872C7.51054 1.53566 7.43203 1.39805 7.36933 1.28816C7.36356 1.27805 7.35792 1.26817 7.35243 1.25857C7.34694 1.26817 7.3413 1.27805 7.33553 1.28816C7.27284 1.39805 7.19432 1.53566 7.11309 1.64872C7.0675 1.71217 7.00809 1.78666 6.93475 1.85214ZM6.94691 0.154881C7.0342 0.0906151 7.17291 0.015625 7.35243 0.015625C7.53196 0.015625 7.67066 0.0906151 7.75795 0.154881C7.84522 0.219128 7.9134 0.296027 7.96344 0.359829C8.06204 0.485528 8.1515 0.641512 8.21921 0.759866L8.22985 0.77846C8.30147 0.903688 8.35438 0.996187 8.40343 1.06458C10.9182 1.55483 12.8163 3.76895 12.8163 6.42736V11.9441L14.5281 13.7408V15.3142H0.0917969V13.7338L1.88857 11.937V6.42736C1.88857 3.76895 3.78662 1.55483 6.30144 1.06458C6.35049 0.996187 6.40339 0.903687 6.47502 0.77846L6.48565 0.759866C6.55337 0.641512 6.64283 0.485528 6.74143 0.359829C6.79147 0.296027 6.85965 0.219128 6.94691 0.154881Z" fill="white"/>
</svg>
