<svg width="18" height="19" viewBox="0 0 18 19" fill="none" xmlns="http://www.w3.org/2000/svg">
<path fill-rule="evenodd" clip-rule="evenodd" d="M6.90625 1.67041C3.6907 1.67041 1.08398 4.27713 1.08398 7.49268C1.08398 10.7082 3.6907 13.3149 6.90625 13.3149C8.52028 13.3149 9.98013 12.6588 11.0352 11.5976C12.0823 10.5444 12.7285 9.09447 12.7285 7.49268C12.7285 4.27713 10.1218 1.67041 6.90625 1.67041ZM0.0839844 7.49268C0.0839844 3.72484 3.13842 0.67041 6.90625 0.67041C10.6741 0.67041 13.7285 3.72484 13.7285 7.49268C13.7285 9.18976 13.1083 10.7428 12.0831 11.9362L17.918 17.7711L17.2109 18.4782L11.3779 12.6453C10.1807 13.685 8.61669 14.3149 6.90625 14.3149C3.13842 14.3149 0.0839844 11.2605 0.0839844 7.49268Z" fill="white"/>
</svg>
