<svg width="18" height="22" viewBox="0 0 18 22" fill="none" xmlns="http://www.w3.org/2000/svg">
<path d="M3.19784 6.54056C1.46933 7.53824 0.877528 9.74783 1.87558 11.4759C2.62217 12.7697 4.04845 13.4266 5.44359 13.2564L3.67538 14.6013C1.94686 15.599 1.35507 17.8086 2.35311 19.5367C3.35018 21.2647 5.56015 21.8567 7.28866 20.859L15.4937 16.1217C17.2213 15.1241 17.8131 12.9145 16.816 11.1864C16.0134 9.79702 14.4284 9.14197 12.9395 9.45716L15.0162 8.06094C16.7437 7.06326 17.3355 4.85367 16.3385 3.12564C15.3404 1.39761 13.1314 0.805573 11.4029 1.80325L3.19784 6.54056Z" stroke="white" stroke-linejoin="round"/>
</svg>
