<svg width="21" height="20" viewBox="0 0 21 20" fill="none" xmlns="http://www.w3.org/2000/svg">
<path fill-rule="evenodd" clip-rule="evenodd" d="M9.2168 5.20227H10.2168V10.3194L13.8754 13.978L13.1683 14.6851L9.2168 10.7336V5.20227Z" fill="white"/>
<path fill-rule="evenodd" clip-rule="evenodd" d="M10.3379 1.07507C6.54833 1.07507 3.30795 3.43134 2.00397 6.75969H6.51659V7.75969H0.800969V1.31033H1.80097V4.91387C3.53909 2.01539 6.71147 0.0750732 10.3379 0.0750732C15.8316 0.0750732 20.2852 4.52862 20.2852 10.0223C20.2852 15.5161 15.8316 19.9696 10.3379 19.9696C4.84417 19.9696 0.390625 15.5161 0.390625 10.0223H1.39062C1.39062 14.9638 5.39645 18.9696 10.3379 18.9696C15.2793 18.9696 19.2852 14.9638 19.2852 10.0223C19.2852 5.0809 15.2793 1.07507 10.3379 1.07507Z" fill="white"/>
</svg>
