<svg width="20" height="14" viewBox="0 0 20 14" fill="none" xmlns="http://www.w3.org/2000/svg">
<path fill-rule="evenodd" clip-rule="evenodd" d="M0.835938 0.692749H15.3691V3.84937C15.3691 4.00549 15.54 4.10141 15.6733 4.02011L18.7879 2.1201C18.9212 2.0388 19.092 2.13472 19.092 2.29084V10.5451C19.092 10.697 18.9293 10.7935 18.796 10.7205L15.6652 9.00599C15.5319 8.933 15.3691 9.02945 15.3691 9.18141V13.3072H0.835938V0.692749ZM1.83594 1.69275V12.3072H14.3691V7.49365C14.3691 7.34169 14.5319 7.24525 14.6652 7.31823L17.796 9.03273C17.9293 9.10572 18.092 9.00927 18.092 8.85731V4.07226C18.092 3.91614 17.9212 3.82022 17.7879 3.90152L14.6733 5.80153C14.54 5.88283 14.3691 5.78691 14.3691 5.63079V1.69275H1.83594Z" fill="white"/>
<path d="M9.03906 3.46472H7.21094V6.14441H4.53125V7.97253H7.21094V10.6517H9.03906V7.97253H11.7188V6.14441H9.03906V3.46472Z" fill="white"/>
</svg>
