<svg width="21" height="21" viewBox="0 0 21 21" fill="none" xmlns="http://www.w3.org/2000/svg">
<path fill-rule="evenodd" clip-rule="evenodd" d="M9.03711 5.79126H10.0371V11.0508L13.4482 14.4619L12.7411 15.169L9.03711 11.465V5.79126Z" fill="white"/>
<path fill-rule="evenodd" clip-rule="evenodd" d="M10.3162 1.75989C5.38672 1.75989 1.39062 5.75599 1.39062 10.6854C1.39062 15.6149 5.38672 19.611 10.3162 19.611C15.2456 19.611 19.2417 15.6149 19.2417 10.6854C19.2417 5.75599 15.2456 1.75989 10.3162 1.75989ZM0.390625 10.6854C0.390625 5.2037 4.83444 0.759888 10.3162 0.759888C15.7979 0.759888 20.2417 5.2037 20.2417 10.6854C20.2417 16.1671 15.7979 20.611 10.3162 20.611C4.83444 20.611 0.390625 16.1671 0.390625 10.6854Z" fill="white"/>
</svg>
