<svg width="91" height="20" viewBox="0 0 91 20" fill="none" xmlns="http://www.w3.org/2000/svg">
<g clip-path="url(#clip0_16_493)">
<path d="M28.3633 3.12324C28.0341 1.89323 27.0674 0.926623 25.8374 0.597366C23.6103 1.78814e-07 14.6756 0 14.6756 0C14.6756 0 5.74104 1.78814e-07 3.51385 0.597366C2.28385 0.926623 1.31725 1.89323 0.987991 3.12324C0.390625 5.35042 0.390625 10 0.390625 10C0.390625 10 0.390625 14.6496 0.987991 16.8768C1.31725 18.1068 2.28385 19.0734 3.51385 19.4026C5.74104 20 14.6756 20 14.6756 20C14.6756 20 23.6103 20 25.8374 19.4026C27.0674 19.0734 28.0341 18.1068 28.3633 16.8768C28.9607 14.6496 28.9607 10 28.9607 10C28.9607 10 28.9583 5.35042 28.3633 3.12324Z" fill="#FF0000"/>
<path d="M11.8159 14.2854L19.2383 10.0004L11.8159 5.71533V14.2854Z" fill="white"/>
<path d="M34.9931 13.0036L31.7852 1.41846H34.5839L35.7081 6.6701C35.995 7.96361 36.2043 9.06662 36.3407 9.97913H36.423C36.5171 9.32532 36.7288 8.22937 37.0557 6.68892L38.2198 1.41846H41.0185L37.7706 13.0036V18.561H34.9908V13.0036H34.9931Z" fill="white"/>
<path d="M41.8603 18.1937C41.2959 17.8127 40.8937 17.22 40.6538 16.4157C40.4163 15.6114 40.2964 14.5437 40.2964 13.2078V11.3898C40.2964 10.0422 40.4328 8.95805 40.7056 8.14196C40.9784 7.32588 41.4041 6.72851 41.9826 6.35457C42.5612 5.98063 43.3208 5.79248 44.2616 5.79248C45.1882 5.79248 45.929 5.98298 46.4887 6.36398C47.0461 6.74497 47.4553 7.34234 47.714 8.15137C47.9727 8.96275 48.1021 10.0422 48.1021 11.3898V13.2078C48.1021 14.5437 47.9751 15.6161 47.7235 16.4251C47.4718 17.2365 47.0626 17.8292 46.4981 18.2031C45.9337 18.5771 45.167 18.7652 44.2004 18.7652C43.2032 18.7675 42.4248 18.5747 41.8603 18.1937ZM45.0259 16.2323C45.1811 15.8231 45.2611 15.1575 45.2611 14.2309V10.3292C45.2611 9.43077 45.1835 8.77225 45.0259 8.35833C44.8683 7.94206 44.5932 7.7351 44.198 7.7351C43.8171 7.7351 43.5466 7.94206 43.3914 8.35833C43.2338 8.77461 43.1562 9.43077 43.1562 10.3292V14.2309C43.1562 15.1575 43.2314 15.8254 43.382 16.2323C43.5325 16.6415 43.8029 16.8461 44.198 16.8461C44.5932 16.8461 44.8683 16.6415 45.0259 16.2323Z" fill="white"/>
<path d="M57.206 18.5634H55L54.7554 17.03H54.6943C54.0945 18.1871 53.1961 18.7656 51.9967 18.7656C51.1665 18.7656 50.5527 18.4928 50.1576 17.9496C49.7625 17.4039 49.5649 16.5526 49.5649 15.3955V6.03751H52.3848V15.2308C52.3848 15.7906 52.4459 16.188 52.5682 16.4256C52.6905 16.6631 52.8951 16.783 53.182 16.783C53.4266 16.783 53.6618 16.7078 53.8876 16.5573C54.1134 16.4067 54.278 16.2162 54.3885 15.9858V6.03516H57.206V18.5634Z" fill="white"/>
<path d="M64.8664 3.68758H62.0677V18.5629H59.309V3.68758H56.5103V1.42041H64.8664V3.68758Z" fill="white"/>
<path d="M71.6675 18.5634H69.4615L69.2169 17.03H69.1558C68.5561 18.1871 67.6577 18.7656 66.4582 18.7656C65.628 18.7656 65.0142 18.4928 64.6191 17.9496C64.224 17.4039 64.0264 16.5526 64.0264 15.3955V6.03751H66.8463V15.2308C66.8463 15.7906 66.9074 16.188 67.0297 16.4256C67.152 16.6631 67.3566 16.783 67.6436 16.783C67.8881 16.783 68.1233 16.7078 68.3491 16.5573C68.5749 16.4067 68.7395 16.2162 68.85 15.9858V6.03516H71.6675V18.5634Z" fill="white"/>
<path d="M80.9999 8.0387C80.8282 7.24849 80.553 6.67699 80.1721 6.32186C79.7911 5.96674 79.2666 5.79035 78.5987 5.79035C78.0813 5.79035 77.5968 5.93616 77.1476 6.23014C76.6984 6.52412 76.3503 6.90747 76.1057 7.38489H76.0846V0.785645H73.3682V18.5608H75.6965L75.9834 17.3755H76.0446C76.2633 17.7988 76.5902 18.1304 77.0253 18.3774C77.4604 18.622 77.9449 18.7443 78.4764 18.7443C79.4289 18.7443 80.1321 18.3045 80.5813 17.4272C81.0305 16.5476 81.2562 15.1765 81.2562 13.3092V11.3266C81.2562 9.92722 81.1692 8.82892 80.9999 8.0387ZM78.4152 13.1492C78.4152 14.0617 78.3776 14.7767 78.3023 15.2941C78.2271 15.8115 78.1024 16.1808 77.9237 16.3971C77.7473 16.6158 77.5074 16.724 77.2087 16.724C76.9759 16.724 76.7619 16.6699 76.5643 16.5594C76.3668 16.4512 76.2069 16.2866 76.0846 16.0702V8.96062C76.1786 8.6196 76.3433 8.34209 76.5761 8.12337C76.8066 7.90465 77.0606 7.79646 77.331 7.79646C77.618 7.79646 77.839 7.90935 77.9943 8.13278C78.1518 8.35855 78.26 8.73485 78.3212 9.26636C78.3823 9.79787 78.4129 10.5528 78.4129 11.5335V13.1492H78.4152Z" fill="white"/>
<path d="M85.2563 13.8712C85.2563 14.6755 85.2798 15.2776 85.3269 15.6798C85.3739 16.0819 85.4727 16.3736 85.6232 16.5594C85.7737 16.7428 86.0042 16.8345 86.317 16.8345C86.738 16.8345 87.0296 16.6699 87.1848 16.343C87.3424 16.0161 87.4271 15.4705 87.4412 14.7085L89.873 14.8519C89.8871 14.9601 89.8941 15.1106 89.8941 15.3011C89.8941 16.4582 89.5766 17.3237 88.944 17.8952C88.3114 18.4667 87.4153 18.7536 86.2582 18.7536C84.8683 18.7536 83.8946 18.3185 83.3372 17.446C82.7775 16.5735 82.5 15.2259 82.5 13.4008V11.2136C82.5 9.33452 82.7893 7.96105 83.3678 7.09558C83.9464 6.2301 84.9365 5.79736 86.3405 5.79736C87.3071 5.79736 88.0503 5.97375 88.5677 6.32888C89.0851 6.684 89.4496 7.23433 89.6613 7.98457C89.873 8.7348 89.9788 9.76961 89.9788 11.0913V13.2362H85.2563V13.8712ZM85.6138 7.96811C85.4703 8.14449 85.3763 8.43377 85.3269 8.83593C85.2798 9.2381 85.2563 9.84722 85.2563 10.6657V11.5641H87.3189V10.6657C87.3189 9.86133 87.2907 9.25221 87.2366 8.83593C87.1825 8.41966 87.0837 8.12803 86.9402 7.95635C86.7968 7.78702 86.5757 7.7 86.277 7.7C85.976 7.70235 85.7549 7.79172 85.6138 7.96811Z" fill="white"/>
</g>
<defs>
<clipPath id="clip0_16_493">
<rect width="90" height="20" fill="white" transform="translate(0.390625)"/>
</clipPath>
</defs>
</svg>
